<?xml version="1.0" encoding="UTF-8" standalone="no"?>
<svg
   xmlns:dc="http://purl.org/dc/elements/1.1/"
   xmlns:cc="http://creativecommons.org/ns#"
   xmlns:rdf="http://www.w3.org/1999/02/22-rdf-syntax-ns#"
   xmlns:svg="http://www.w3.org/2000/svg"
   xmlns="http://www.w3.org/2000/svg"
   xmlns:sodipodi="http://sodipodi.sourceforge.net/DTD/sodipodi-0.dtd"
   xmlns:inkscape="http://www.inkscape.org/namespaces/inkscape"
   aria-hidden="true"
   focusable="false"
   data-prefix="far"
   data-icon="list-alt"
   class="svg-inline--fa fa-list-alt fa-w-16"
   role="img"
   viewBox="0 0 512 512"
   version="1.1"
   id="svg4"
   sodipodi:docname="list-off-focused.svg"
   inkscape:version="0.92.4 (5da689c313, 2019-01-14)">
  <metadata
     id="metadata10">
    <rdf:RDF>
      <cc:Work
         rdf:about="">
        <dc:format>image/svg+xml</dc:format>
        <dc:type
           rdf:resource="http://purl.org/dc/dcmitype/StillImage" />
        <dc:title></dc:title>
      </cc:Work>
    </rdf:RDF>
  </metadata>
  <defs
     id="defs8" />
  <sodipodi:namedview
     pagecolor="#ffffff"
     bordercolor="#666666"
     borderopacity="1"
     objecttolerance="10"
     gridtolerance="10"
     guidetolerance="10"
     inkscape:pageopacity="0"
     inkscape:pageshadow="2"
     inkscape:window-width="1600"
     inkscape:window-height="838"
     id="namedview6"
     showgrid="false"
     showguides="true"
     inkscape:guide-bbox="true"
     inkscape:zoom="0.921875"
     inkscape:cx="189.50883"
     inkscape:cy="227.77052"
     inkscape:window-x="-8"
     inkscape:window-y="-8"
     inkscape:window-maximized="1"
     inkscape:current-layer="layer2" />
  <g
     inkscape:groupmode="layer"
     id="layer1"
     inkscape:label="Layer 1"
     style="display:inline"
     sodipodi:insensitive="true">
    <path
       sodipodi:nodetypes="sssssssss"
       style="fill:#5fb2ff;fill-opacity:1"
       inkscape:connector-curvature="0"
       id="path828"
       d="M 464,0 H 48 C 21.49,0 0,21.49 0,48 v 418 c 0,26.51 21.49,46 48,46 h 416 c 26.51,0 48,-19.49 48,-46 V 48 C 512,21.49 490.51,0 464,0 Z" />
  </g>
  <g
     inkscape:groupmode="layer"
     id="layer2"
     inkscape:label="Layer 2"
     style="display:inline">
    <path
       sodipodi:nodetypes="sssssssss"
       style="fill:#ffffff;fill-opacity:1"
       inkscape:connector-curvature="0"
       id="path904"
       d="M 432,32.000003 H 80 c -26.51,0 -48,21.49 -48,48 V 432 c 0,26.51 21.49,48 48,48 h 352 c 26.51,0 48,-21.49 48,-48 V 80.000003 c 0,-26.51 -21.49,-48 -48,-48 z" />
    <path
       d="m 416,356 v 24 c 0,6.627 -5.37299,12 -11.99999,12 H 202 c -6.627,0 -12,-5.373 -12,-12 v -24 c 0,-6.627 5.373,-12 12,-12 H 404.00001 C 410.62701,344 416,349.373 416,356 Z m 0,-112 v 24 c 0,6.627 -5.37299,12 -11.99999,12 H 202 c -6.627,0 -12,-5.373 -12,-12 v -24 c 0,-6.627 5.373,-12 12,-12 H 404.00001 C 410.62701,232 416,237.373 416,244 Z m 0,-112 v 24 c 0,6.627 -5.37299,12 -11.99999,12 H 202 c -6.627,0 -12,-5.373 -12,-12 v -24 c 0,-6.627 5.373,-12 12,-12 H 404.00001 C 410.62701,120 416,125.373 416,132 Z m -248,12 c 0,19.882 -16.118,36 -36,36 -19.882,0 -36.000002,-16.118 -36.000002,-36 0,-19.882 16.118002,-36 36.000002,-36 19.882,0 36,16.118 36,36 z m 0,112 c 0,19.882 -16.118,36 -36,36 -19.882,0 -36.000002,-16.118 -36.000002,-36 0,-19.882 16.118002,-36 36.000002,-36 19.882,0 36,16.118 36,36 z m 0,112 c 0,19.882 -16.118,36 -36,36 -19.882,0 -36.000002,-16.118 -36.000002,-36 0,-19.882 16.118002,-36 36.000002,-36 19.882,0 36,16.118 36,36 z"
       id="path2"
       inkscape:connector-curvature="0"
       style="fill:#808080;fill-opacity:1"
       sodipodi:nodetypes="ssssssssssssssssssssssssssssssssssssssssss" />
    <path
       d="M 432,31.999994 H 79.99999 C 53.49,31.999994 32,53.489994 32,79.999995 V 432 c 0,26.51 21.49,48 47.99999,48 H 432 c 26.51,0 48,-21.49 48,-48 V 79.999995 C 480,53.489994 458.51,31.999994 432,31.999994 Z M 434,440 H 77.99999 c -3.3137,0 -6,-2.68629 -6,-6 V 77.999995 c 0,-3.3137 2.6863,-6 6,-6 H 434 c 3.31371,0 6,2.6863 6,6 V 434 c 0,3.31371 -2.68629,6 -6,6 z"
       id="path2-3-7"
       inkscape:connector-curvature="0"
       style="display:inline;fill:#808080;fill-opacity:1"
       sodipodi:nodetypes="ssssssssssssssssss" />
  </g>
  <g
     inkscape:groupmode="layer"
     id="layer3"
     inkscape:label="Layer 3"
     style="display:none"
     sodipodi:insensitive="true">
    <path
       d="M 432,32 H 79.99999 C 53.49,32 32,53.49 32,80 v 352 c 0,26.51 21.49,48 47.99999,48 H 432 c 26.51,0 48,-21.49 48,-48 V 80 C 480,53.49 458.51,32 432,32 Z m -6,400 H 85.99999 c -3.3137,0 -6,-2.68629 -6,-6 V 86 c 0,-3.3137 2.6863,-6 6,-6 H 426 c 3.31371,0 6,2.6863 6,6 v 340 c 0,3.31371 -2.68629,6 -6,6 z m -14,-92 v 24 c 0,6.627 -5.373,12 -12,12 H 200 c -6.627,0 -12,-5.373 -12,-12 v -24 c 0,-6.627 5.373,-12 12,-12 h 200 c 6.627,0 12,5.373 12,12 z m 0,-96 v 24 c 0,6.627 -5.373,12 -12,12 H 200 c -6.627,0 -12,-5.373 -12,-12 v -24 c 0,-6.627 5.373,-12 12,-12 h 200 c 6.627,0 12,5.373 12,12 z m 0,-96 v 24 c 0,6.627 -5.373,12 -12,12 H 200 c -6.627,0 -12,-5.373 -12,-12 v -24 c 0,-6.627 5.373,-12 12,-12 h 200 c 6.627,0 12,5.373 12,12 z m -244,12 c 0,19.882 -16.118,36 -36,36 -19.882,0 -36.00001,-16.118 -36.00001,-36 0,-19.882 16.11801,-36 36.00001,-36 19.882,0 36,16.118 36,36 z m 0,96 c 0,19.882 -16.118,36 -36,36 -19.882,0 -36.00001,-16.118 -36.00001,-36 0,-19.882 16.11801,-36 36.00001,-36 19.882,0 36,16.118 36,36 z m 0,96 c 0,19.882 -16.118,36 -36,36 -19.882,0 -36.00001,-16.118 -36.00001,-36 0,-19.882 16.11801,-36 36.00001,-36 19.882,0 36,16.118 36,36 z"
       id="path2-3"
       inkscape:connector-curvature="0"
       style="display:inline;fill:currentColor"
       sodipodi:nodetypes="ssssssssssssssssssssssssssssssssssssssssssssssssssssssssssss" />
  </g>
</svg>
