<svg xmlns="http://www.w3.org/2000/svg" width="800" height="500">
   <g stroke="#000">
      <g id="river" opacity="0">
         <path d="M0 272.78s15.106-.116 28.178-6.375c14.934-7.15 26.493-23.078 45.575-8.79 8.86 6.634 19.237 36.958 33.597 36.753 24.317-.348 18.172-46.755 37.558-63.467 6.696-5.772 18.874-13.916 32.829-11.994 19.763 2.722 24.965 29.846 42.894 42 32.99 22.363 35.936 32.91 77.83 1.744 17.653-13.132 24.38-24.303 22.722-45.012-1.191-14.866 3.36-29.15 7.498-38.276 4.37-9.638-.304-16.448 2.656-24.232 26.401-69.44 157.672-84.192 207.013-98.879C574.91 37.945 573.614 33.1 565.517 0h11.414c3.874 14.005 9.494 19.707-12.786 55.335-10.36 16.568-84.871 23.593-123.2 37.052-33.927 11.912-91.424 31.868-96.897 62.541-6.34 35.531 12.33 58.395 26.517 85.975 16.573 32.22 35.338 57.658 55.714 85.7 13.82 19.018 30.944 32.114 46.002 50.068 19.744 23.54 32.422 50.65 33.405 86.184-3.597 30.927 1.277 6.966 1.519 37.145h-11.249s-.54-39.583-3.444-61.126c-5.397-40.03-55.18-75.288-88.628-116.713-23.154-28.675-50.607-85.866-69.268-129.137-.782-1.813-3.496-2.507-5.074.099-9.704 16.03-.034 30.761-4.421 45.893-3.117 10.75-29.259 38.935-55.968 47.054-24.79 7.534-50.68-12.767-78.183-53.791-8.108-12.094-15.359-8.642-25.122-5.755-25.925 7.668-28.46 32.657-35.186 49.56-6.785 17.047-19.8 30.217-34.726 21.06-18.17-11.148-23.218-53.662-47.186-34.914C33.213 274.383 0 281.507 0 281.507z"
            fill="#dcdcdc"/>
         <animate attributeName="opacity" from="0" to="1" begin="0s" dur="1s" fill="freeze" />
      </g>
      <g id="roads" stroke-width="1.43" opacity="0">
         <path d="M491.92 3129.066l51.013-9.84 210.107-76.722 101.516 1.331 6.174-8.65-113.863-5.322-207.977 76.443-51.986 11.24-168.223 54.547c12.885-43.909 42.409-137.433 42.409-137.433 4.902-13.357 33.06-33.29 42.387-42.032 0 0 15.258-10.733 43.615-29.543l180.576-37.183c167.517 7.902 279.02 21.955 422.704 50.366l.03-13.867c-128.159-27.083-243.362-44.683-421.217-51.496l-152.123 30.613c111.557-70.58 234.423-151.311 336.552-216.01 28.06-17.777 62.84-53.186 65.715-81.214l-17.967-.716c.178 24.213-16.482 43.411-67.162 81.032l-354.867 225.841-44.923 31.654c-12.844 9.769-26.065 20.604-39.056 40.909-27.962 72.056-77.971 224.762-77.971 224.762s-12.516 56.533-24.96 81.697l-20.091 24.84 18.707.11 8.869-12.169c22.422-56.355 27.56-97.916 54.34-156.868z"
            fill="#fefefe" transform="matrix(.69424 0 0 .70419 70.703 -1861.716)"/>
         <path d="M282.877 3069.283L71.38 3233.38l-172.608-217.349-.236 24.16 161.29 203.46-136.74 110.379 23.413.652 343.927-278.785zm43.69-30.783l-21.582-154.05c40.172-52.348 81.102-93.506 121.275-142.097l75.634-99.06-20.023-.05-39.752 54.372-100.81 122.379-146.037-113.24-13.985 14.176c-26.311-25.642-56.095-47.458-70.118-75.913l-25.85-.598c33.101 49.618 66.802 70.89 99.613 99.302l15.23-14.3 130.464 101.01-126.492 151.621 8.387 7.058 80.391-93.778 24.784 149.12z"
            fill="#fff" transform="matrix(.69424 0 0 .70419 70.703 -1861.716)"/>
         <animate attributeName="opacity" from="0" to="1" begin="1s" dur="1s" fill="freeze" />
      </g>
      <g id="quartals" fill="#f2f2e2" opacity="0">
         <path d="M366.585 222.309l105.195-68.44-35.424-53.813c-44.853 12.03-79.225 30.376-86.577 52.79-7.712 23.509-2.885 39.43 16.806 69.463zM478.46 149.464L442.767 96.27s58.768-11.753 82.033-17.836c13.339-3.487 34.492-12.915 34.492-12.915l13.05 23.063zM397.825 211.468l133.46-86.525-25.128 63.674zM383.06 223.578l122.77-25.232 1.321 21.52 28.952 72.775-91 33.119-10.321 2.234c-23.589-26.148-46.09-59.712-64.15-96.421zM346.13 235.57l-50.074 47.557-19.06 24.845-10.463-7.968 2.894-10.175c28.214-12.392 48.856-29.511 60.786-55.181l12.188-7.073zM284.09 311.407l15.12-23.253c3.006-2.78 10.324-11.119 12.414-9.923 2.09 1.196-8.216 28.095-13.24 41.17zM291.201 372.228l30.692-102.585 28.628-23.822c15.232 29.728 35.897 68.123 54.223 89.691zM262.861 427.309l30.946-93.302-34.863-18.805-132.364 108.95 29.014 36.405 20.357-.62 69.213 24.795 4.415-11.323c-9.07-2.57-7.514-13.826-5.255-26.908 2.26-13.083 7.855-19.158 18.537-19.192zM253.306 485.971l4.526-10.558c14.88 1.56 18.189-9.932 20.517-20.534 2.327-10.603 4.808-23.145-6.94-26.699l16.034-47.584 97.399-30.682 3.445 6.818 9.708-3.41 50.11 49.9-121.007 96.255-16.7.012zM20.982 288.362l100.15 127.882 132.08-105.52 2.645-18.054-23.162-4.911-34.741-28.242-31.847-18.828-44.456 57.446-20.266 7.489-20.726-8.363-27-28.899zM163.282 499.763l18.849-24.513 57.276 16.15-7.87 8.729zm-22.523-.096l-107.134.42 84.423-69.075 32.756 38.065-21.495 15.144zM400.2 458.845l53.354-41.34 4.963 11.87-11.994 4.093.827 33.153 27.711 25.786 13.153 7.212-85.249.055 1.372-32.643zM441.974 337.284l97.885-37.123 17.92 37.122-21.92 6.55-53.644 37.429zM489.537 391.31l49.631-38.473 19.852-6.958 60.491 137.634-24.952 16.991-82.443.01-1.072-60.494zM628.823 478.414L575.978 361.84l45.495 15.553 31.02 19.237 40.437 39.216zM570.601 342.604l115.393-40.11 22.334-18.828 21.711-27.832 5.172 5.73-7.445 37.246-2.481 39.701-26.056 51.572-17.785 17.19-28.538-22.92-35.155-19.237-45.496-14.326z"/>
         <path d="M514.766 198.123l153.062 12.172 57.043 9.93-4.55 21.692 5.378 7.777-16.13 22.102-26.057 21.283-50.458 18.828-7.859-20.874-34.328 1.228-12.408 35.609-11.535 4.584-16.887-36.489 42.078-15.512 71.244.313 2.54-4.676-77.103-3.45-43.024 16.174-29.765-66.543zM515.593 187.89l27.174-70.172L630.445 61.1 673.3 21.488l16.417 16.6c-1.49 4.228-2.876 8.248 1.654 14.325 4.53 6.077 7.902 8.5 11.167 7.777l9.1 9.823 13.648-4.912 26.47 33.153 1.24 47.479-19.136 65.682-64.68-10.446z"/>
         <path d="M678.962 11.893l1.279-12.088 12.228.064 15.457 31.073 16.945 27.201-11.994 4.503-4.136-5.321s3.115-6.24-3.722-15.553-11.167-7.777-11.167-7.777zM578.237 85.138l42.438-27.811 32.577-29.364L665.948.003l-73.84.209-10.34 41.969-15.303 24.967zM432.142 77.568L395.249 31.54 416.99-.112l144.684.11.71 34.536-34.436 19.507zM381.802 98.741l-22.519-20.497 30.495-39.481 33.277 41.97zM269.919 95.766L339.52 9.968l42.265 22.84-74.565 92.125zM340.977-.2l45.785 25.325L405.576-.23zM294.226 255.501l-11.498-86.36 10.434-14.404 25.106 9.14-20.225 22.786.414 32.743 12.407 20.874zM274.014 176.112l10.794 71.126-12.408 6.14 2.068-18.01-8.521-48.434zM227.118 152.58l39.492-48.186 19.853 16.372-39.08 47.367zM252.474 172.012l39.404-47.167 9.347 6.987-40.232 47.251zM258.352 274.408l8.38-51.047-6.576-28.743-44.466 52.054 30.413 26.195zM162.29 111.02l53.767 41.748-37.956 46.583-14.89-15.963-24.815-.819-14.476 28.242-35.982-8.186 2.068-51.98 25.453-1.749 1.856-14.435 18.812 6.847zM168.907 104.991l38.973-46.848 51.285 40.111-38.558 48.485zM262.994 89.438l58.21-66.903 10.774-22.86-82.45.144-4.011 14.53-31.327 36.615zM353.01 84.241l-55.061 63.726 24.496 9.635s11.49-21.142 20.68-30.697 34.328-24.558 34.328-24.558z"/>
         <path d="M135.501 133.454l55.422-70.808-41.466-38.662L131.79.378l-43-.138-52.327 48.567-9.3 104.128 24.379 1.88 23.16-11.538 32.261-.409 5.802-18.784zM50.513 163.85l22.334-11.202 4.284 7.57-12.238 28.763 4.991 26.106 1.004 31.592-20.457 1.302-35.743 21.398 10.309-106.623zM16.768 499.805l-17.01.198.81-156.705 6.974-16.185 3.599-33.266 101.786 129.48zM351.028 499.888l40.5-30.795-2.572 30.748zM615.944 499.769l81.352-58.578 42.528 48.142-19.256 10.57zM241.855.044l-4.405 12.42-39.866 43.77-43.66-41.65L145.262.225zM713.018.406l87.565 140.533-.216-33.947-39.515-89.428L745.406-.114zM749.321 213.977l22.45-86.708 9.358 31.716-11.958 58.724zM255.91 185.454l-34.092-28.181-40.909 50 30.91 31.818z"/>
         <animate attributeName="opacity" from="0" to="1" begin="2s" dur="1s" fill="freeze" />
      </g>
   </g>
</svg>
