<svg xmlns="http://www.w3.org/2000/svg" width="800" height="500">
   <defs>
      <style type="text/css">
         @keyframes opacityLoop1 {
            0% { opacity: 0; }
            20% { opacity: 1; }
            80% { opacity: 1; }
            100% { opacity: 0; }
         }
         @keyframes opacityLoop2 {
            0% { opacity: 0; }
            20% { opacity: 0; }
            40% { opacity: 1; }
            80% { opacity: 1; }
            100% { opacity: 0; }
         }
         @keyframes opacityLoop3 {
            0% { opacity: 0; }
            40% { opacity: 0; }
            60% { opacity: 1; }
            80% { opacity: 1; }
            100% { opacity: 0; }
         }
         #river {
            opacity: 0;
            animation: 5000ms linear infinite opacityLoop1;
         }
         #roads {
            opacity: 0;
            animation: 5000ms linear infinite opacityLoop2;
         }
         #quartals {
            opacity: 0;
            animation: 5000ms linear infinite opacityLoop3;
         }
      </style>
   </defs>

   <g stroke="#000">
      <path id="river" d="M-1.5 272.917s15.118-.117 28.2-6.413c14.946-7.193 26.514-23.217 45.611-8.843 8.867 6.674 19.253 37.18 33.624 36.973 24.336-.35 18.187-47.035 37.588-63.848 6.7-5.806 18.889-14 32.854-12.066 19.78 2.738 24.985 30.026 42.928 42.252 33.017 22.498 35.965 33.108 77.893 1.755 17.666-13.21 24.399-24.45 22.739-45.282-1.192-14.955 3.363-29.325 7.504-38.506 4.373-9.696-.304-16.547 2.658-24.377C356.52 84.705 487.896 69.864 537.276 55.09c36.588-18.417 35.291-23.292 27.189-56.59h11.422c3.878 14.089 9.502 19.825-12.796 55.667-10.369 16.667-84.938 23.735-123.297 37.274-33.953 11.984-91.497 32.06-96.974 62.917-6.345 35.744 12.34 58.745 26.538 86.49 16.587 32.414 35.367 58.004 55.759 86.214 13.83 19.133 30.968 32.307 46.038 50.369 19.759 23.682 32.447 50.954 33.43 86.701-3.6 31.112 1.28 7.008 1.521 37.368h-11.257s-.54-39.82-3.447-61.493c-5.402-40.27-55.223-75.74-88.698-117.413-23.173-28.848-50.647-86.381-69.323-129.912-.782-1.824-3.499-2.522-5.078.1-9.712 16.127-.034 30.946-4.425 46.168-3.119 10.814-29.281 39.17-56.012 47.336-24.809 7.58-50.72-12.843-78.244-54.113-8.115-12.167-15.372-8.694-25.143-5.79-25.945 7.714-28.481 32.853-35.214 49.858-6.79 17.149-19.816 30.398-34.753 21.185-18.184-11.214-23.236-53.983-47.223-35.122C31.739 274.53-1.5 281.696-1.5 281.696z"
         fill="#dcdcdc"/>
      <path id="roads" d="M304.985 2884.45c40.172-52.348 81.102-93.506 121.275-142.097l75.634-99.824H481.87l-39.752 55.086-100.81 122.378-146.037-113.24-13.985 14.177c-26.311-25.642-57.96-49.946-71.983-78.4H85.32c33.101 49.618 66.802 72.78 99.613 101.19l15.23-14.3 130.464 101.012-126.492 151.62 8.387 7.058 80.391-93.778 23.315 148.979S153.55 3170.08 71.38 3233.38l-173.559-217.349v24.16l204.456 256.632-57.003 58.578h21.693l57.276-57.2-43.291-54.634 229.281-181.946 23.38 19.513-91.815 274.267h13.544s72.825-215.082 105.748-320.742c4.23-13.578 33.06-33.29 42.387-42.032 0 0 15.258-10.733 43.615-29.543l177.87-36.65 1.984 31.76 174.286 397.207H816.6l-174.087-396.205-1.942-32.818 216.66 17.335 193.883 32.554v-13.867l-190.51-34.57-234.668-17.46-76.497 16.372-10.427-25.17s189.635-122.238 274.6-176.065c28.062-17.777 62.84-54.951 65.716-82.979h-17.967c.178 24.214-16.482 44.46-67.162 82.081l-354.867 225.841-44.923 31.654c-17.475 15.275-67.615 55.188-67.615 55.188z"
         fill="#fff" transform="matrix(.69713 0 0 .707 69.232 -1870.265)" stroke-width="1.424"/>
      <g id="quartals" fill="#f2f2e2">
         <path d="M366.32 222.095l105.478-68.734-35.52-54.046c-44.973 12.082-79.438 30.507-86.81 53.017-7.734 23.611-2.893 39.6 16.851 69.763zM478.495 148.936l-35.788-53.422S501.634 83.71 524.962 77.6c13.375-3.502 34.585-12.97 34.585-12.97l13.086 23.162zM432.836 188.354l98.627-64.044-25.195 63.949-68.534 14.479zM382.84 223.37l123.1-25.34 1.325 23.499 29.784 70.825-92 33.638-10.35 2.244c-23.651-26.261-46.213-59.97-64.323-96.837zM345.809 235.414l-50.21 47.761-21.31 27.352-8.292-10.402 1.302-8.619c28.29-12.445 50.588-31.238 62.55-57.019l12.22-7.103zM280.603 314.976l18.158-26.752c3.015-2.792 10.353-11.166 12.449-9.965 2.096 1.2-14.438 44.812-14.475 44.947zM289.883 373.227l31.623-103.594 28.705-23.924c15.274 29.856 35.994 68.416 54.37 90.078zM262.315 427.979l31.03-93.704-34.958-18.886-133.521 108.219 29.893 37.763 20.411-.623 68.248 24.901 3.579-11.371c-9.095-3.713-7.513-16.148-4.683-27.308 2.831-11.16 8.442-19.805 20.001-18.991zM252.052 487.177l3.503-10.886c12.941 1.284 18.824-7.995 22.572-20.623 3.748-12.628 3.125-23.245-6.957-26.248l15.228-47.507 98.227-31.663 3.454 6.848 9.735-3.424 50.244 50.113L326.725 502H309.98zM18.983 288.434l101.22 128.433 132.436-105.975 2.653-18.132-23.224-4.932-34.836-28.364-31.932-18.909-44.576 57.693-20.32 7.521-20.783-8.399-27.073-29.023zM162.467 502l18.9-25.874 59.431 16.22-2.56 9.654zm-36.033-11.44l15.45 11.44h-26.508zM32.461 502l85.05-71.101 23.246 30.23L101.393 502zM400.025 459.65l53.498-41.517 4.976 11.921-12.026 4.11.83 33.297 27.785 25.896L488.276 502h-85.479l1.375-34.128zM441.91 337.566l98.15-37.283 16.837 36.905-20.847 6.954-53.79 37.591zM489.602 391.825l49.766-38.64 21.038-6.987 59.9 138.982L594.907 502h-82.665l-1.076-61.255zM628.887 479.304l-50.723-117.075 43.73 15.62 31.104 19.32 40.547 39.385zM569.753 342.91l116.836-40.285 22.395-18.909 21.77-27.952 5.186 5.755-7.465 37.407-2.488 39.873-26.127 51.793-17.832 17.264-28.615-23.019-35.25-19.32-44.486-13.632z"/>
         <path d="M514.9 197.805l152.72 12.601 57.197 9.974-3.807 21.408 5.392 7.81-16.174 22.198-26.127 21.375-50.594 18.909-7.88-20.964-34.42 1.233-12.442 35.762-13.453 5.736-16.178-37.778 43.323-15.58 71.437.315 2.548-4.696-77.312-3.465-43.14 16.244-29.846-66.83zM515.73 187.529l27.247-70.476 87.914-56.86 42.97-39.784 16.46 16.671c-1.494 4.247-2.883 8.284 1.66 14.387 4.542 6.104 7.923 8.536 11.197 7.81l9.124 9.866 13.685-4.933 26.541 33.296 1.244 47.683-17.678 66.343-66.364-10.869z"/>
         <path d="M679.54 10.773L680.82-2h12.261l15.499 31.903 16.991 27.319-12.026 4.522-4.147-5.344s3.123-6.268-3.733-15.62c-6.856-9.353-11.197-7.81-11.197-7.81zM578.542 84.333l42.553-27.93L653.76 26.91 666.49-2h-74.04l-10.367 43.19-15.345 25.076zM432.053 76.73L395.06 30.504 416.859-2h145.074l.713 35.51-34.53 19.592zM381.577 97.995l-22.58-20.585 30.578-39.652 33.366 42.15zM269.392 95.006l69.79-86.167 42.38 22.938-74.767 92.522zM340.641-2l45.91 26.061L405.414-2zM293.765 255.431l-11.53-86.734 10.463-14.465 25.174 9.18-20.28 22.883.415 32.885 12.441 20.964zM273.498 175.699l10.823 71.433-12.441 6.166 2.074-18.086-8.545-48.644zM226.475 152.066l39.6-48.394 19.905 16.443-39.184 47.571zM251.9 171.582l39.51-47.37 9.373 7.017-40.341 47.454zM257.794 274.419l8.403-51.267-6.494-30.267-45.087 53.678 30.896 26.308zM161.472 110.327l53.913 41.928-38.059 46.783-14.93-16.031-24.882-.822L123 210.548l-36.08-8.221 2.074-52.205 25.522-1.756 1.86-14.497 18.864 6.876zM168.108 104.272l39.077-47.05 51.424 40.284-38.663 48.694zM262.448 88.652l58.368-67.192L331.619-2h-82.673l-4.022 15.239-31.411 36.773zM352.707 83.432l-55.21 64.001 24.563 9.677s11.52-21.234 20.735-30.83c9.215-9.596 34.421-24.663 34.421-24.663z"/>
         <path d="M134.611 132.857l55.571-71.113-41.577-38.828L130.89-2H87.773L35.306 47.846l-9.325 104.577 24.444 1.887 23.224-11.587 32.347-.411 5.818-18.865zM49.394 163.385l22.395-11.25 4.294 7.601-12.27 28.888 5.004 26.218 1.007 31.728-20.512 1.308-35.84 21.49L23.81 162.286zM15.558 502H-2l1.314-158.394 6.992-16.255 3.61-33.409 102.06 130.039zM348.72 502l40.609-32.057-.578 32.057zM631.974 487.66l65.949-45.739 42.642 48.35L721.257 502h-82.722zM241.252-2l-4.417 13.346-12.765 14.037-25.395-24.169-31.147 26.062-14.443-13.801L144.398-2zM713.687-2L802 140.375V106.28l-40.35-89.813L746.162-2zM750.465 214.86l22.133-88.214 9.384 31.852-12.368 59.732zM255.344 185.082l-34.183-28.303-41.02 50.215 30.993 31.956z"/>
      </g>
   </g>
</svg>
