<?xml version="1.0" encoding="UTF-8" standalone="no"?>
<!-- Generator: Adobe Illustrator 18.0.0, SVG Export Plug-In . SVG Version: 6.00 Build 0)  -->

<svg
   xmlns:dc="http://purl.org/dc/elements/1.1/"
   xmlns:cc="http://creativecommons.org/ns#"
   xmlns:rdf="http://www.w3.org/1999/02/22-rdf-syntax-ns#"
   xmlns:svg="http://www.w3.org/2000/svg"
   xmlns="http://www.w3.org/2000/svg"
   xmlns:sodipodi="http://sodipodi.sourceforge.net/DTD/sodipodi-0.dtd"
   xmlns:inkscape="http://www.inkscape.org/namespaces/inkscape"
   version="1.1"
   id="Capa_1"
   x="0px"
   y="0px"
   viewBox="0 0 112.196 112.196"
   style="enable-background:new 0 0 112.196 112.196;"
   xml:space="preserve"
   inkscape:version="0.48.4 r9939"
   width="100%"
   height="100%"
   sodipodi:docname="facebook-1.svg"><metadata
   id="metadata43"><rdf:RDF><cc:Work
       rdf:about=""><dc:format>image/svg+xml</dc:format><dc:type
         rdf:resource="http://purl.org/dc/dcmitype/StillImage" /><dc:title></dc:title></cc:Work></rdf:RDF></metadata><defs
   id="defs41">
	
	
</defs><sodipodi:namedview
   pagecolor="#ffffff"
   bordercolor="#666666"
   borderopacity="1"
   objecttolerance="10"
   gridtolerance="10"
   guidetolerance="10"
   inkscape:pageopacity="0"
   inkscape:pageshadow="2"
   inkscape:window-width="1600"
   inkscape:window-height="838"
   id="namedview39"
   showgrid="false"
   inkscape:zoom="2.1034618"
   inkscape:cx="-25.434263"
   inkscape:cy="56.098"
   inkscape:window-x="-8"
   inkscape:window-y="-8"
   inkscape:window-maximized="1"
   inkscape:current-layer="Capa_1" />
<path
   style="fill:#3b5998"
   d="M 56.09375 0 C 25.111681 6.2265008e-015 -8.6798001e-017 25.111681 0 56.09375 C 0 87.075819 25.111681 112.1875 56.09375 112.1875 C 87.075819 112.1875 112.1875 87.075819 112.1875 56.09375 C 112.1875 25.111681 87.075819 -1.2462122e-014 56.09375 0 z M 60.3125 21.75 L 71.5625 21.8125 L 71.5625 34.3125 L 63.40625 34.3125 C 62.06925 34.3125 60.1875 34.99875 60.1875 37.84375 L 60.1875 45.40625 L 71.53125 45.40625 L 70.1875 58.28125 L 60.1875 58.28125 L 60.1875 94.96875 L 45.03125 94.96875 L 45.03125 58.28125 L 37.8125 58.28125 L 37.8125 45.40625 L 45.03125 45.40625 L 45.03125 37.0625 C 45.03125 31.0985 47.8445 21.75 60.3125 21.75 z "
   id="circle5" />
<g
   id="g9">
</g>
<g
   id="g11">
</g>
<g
   id="g13">
</g>
<g
   id="g15">
</g>
<g
   id="g17">
</g>
<g
   id="g19">
</g>
<g
   id="g21">
</g>
<g
   id="g23">
</g>
<g
   id="g25">
</g>
<g
   id="g27">
</g>
<g
   id="g29">
</g>
<g
   id="g31">
</g>
<g
   id="g33">
</g>
<g
   id="g35">
</g>
<g
   id="g37">
</g>
</svg>