<?xml version="1.0" encoding="UTF-8" standalone="no"?>
<!-- Generator: Adobe Illustrator 19.0.0, SVG Export Plug-In . SVG Version: 6.00 Build 0)  -->

<svg
   xmlns:dc="http://purl.org/dc/elements/1.1/"
   xmlns:cc="http://creativecommons.org/ns#"
   xmlns:rdf="http://www.w3.org/1999/02/22-rdf-syntax-ns#"
   xmlns:svg="http://www.w3.org/2000/svg"
   xmlns="http://www.w3.org/2000/svg"
   xmlns:sodipodi="http://sodipodi.sourceforge.net/DTD/sodipodi-0.dtd"
   xmlns:inkscape="http://www.inkscape.org/namespaces/inkscape"
   version="1.1"
   id="Layer_1"
   x="0px"
   y="0px"
   viewBox="0 0 89.758 89.758"
   style="enable-background:new 0 0 89.758 89.758;"
   xml:space="preserve"
   inkscape:version="0.48.4 r9939"
   width="100%"
   height="100%"
   sodipodi:docname="instagram-1.svg"><metadata
   id="metadata45"><rdf:RDF><cc:Work
       rdf:about=""><dc:format>image/svg+xml</dc:format><dc:type
         rdf:resource="http://purl.org/dc/dcmitype/StillImage" /><dc:title></dc:title></cc:Work></rdf:RDF></metadata><defs
   id="defs43">
	
	
	
</defs><sodipodi:namedview
   pagecolor="#ffffff"
   bordercolor="#666666"
   borderopacity="1"
   objecttolerance="10"
   gridtolerance="10"
   guidetolerance="10"
   inkscape:pageopacity="0"
   inkscape:pageshadow="2"
   inkscape:window-width="1600"
   inkscape:window-height="838"
   id="namedview41"
   showgrid="false"
   inkscape:zoom="2.6292921"
   inkscape:cx="-20.347682"
   inkscape:cy="44.879"
   inkscape:window-x="-8"
   inkscape:window-y="-8"
   inkscape:window-maximized="1"
   inkscape:current-layer="Layer_1" />
<path
   inkscape:connector-curvature="0"
   id="path5"
   d="M 58.255,23.88 H 31.503 c -4.27,0 -7.744,3.474 -7.744,7.744 v 26.752 c 0,4.27 3.474,7.745 7.744,7.745 h 26.752 c 4.27,0 7.745,-3.474 7.745,-7.745 V 31.624 C 66,27.354 62.526,23.88 58.255,23.88 z M 44.879,58.906 c -7.667,0 -13.905,-6.238 -13.905,-13.906 0,-7.667 6.238,-13.905 13.905,-13.905 7.668,0 13.906,6.238 13.906,13.905 0,7.667 -6.239,13.906 -13.906,13.906 z M 59.232,33.97 c -1.815,0 -3.291,-1.476 -3.291,-3.29 0,-1.814 1.476,-3.29 3.291,-3.29 1.814,0 3.29,1.476 3.29,3.29 0,1.814 -1.476,3.29 -3.29,3.29 z"
   style="fill:#d93175;fill-opacity:1" /><path
   inkscape:connector-curvature="0"
   id="path7"
   d="m 44.879,36.971 c -4.426,0 -8.03,3.602 -8.03,8.028 0,4.428 3.604,8.031 8.03,8.031 4.428,0 8.029,-3.603 8.029,-8.031 0,-4.425 -3.602,-8.028 -8.029,-8.028 z"
   style="fill:#d93175;fill-opacity:1" /><path
   inkscape:connector-curvature="0"
   id="path9"
   d="M 44.879,0 C 20.094,0 0,20.094 0,44.879 0,69.664 20.094,89.758 44.879,89.758 69.664,89.758 89.758,69.664 89.758,44.879 89.758,20.094 69.664,0 44.879,0 z m 26.996,58.376 c 0,7.511 -6.109,13.62 -13.62,13.62 H 31.503 c -7.51,0 -13.62,-6.109 -13.62,-13.62 V 31.624 c 0,-7.51 6.11,-13.62 13.62,-13.62 h 26.752 c 7.511,0 13.62,6.11 13.62,13.62 v 26.752 z"
   style="fill:#d93175;fill-opacity:1" />
<g
   id="g11">
</g>
<g
   id="g13">
</g>
<g
   id="g15">
</g>
<g
   id="g17">
</g>
<g
   id="g19">
</g>
<g
   id="g21">
</g>
<g
   id="g23">
</g>
<g
   id="g25">
</g>
<g
   id="g27">
</g>
<g
   id="g29">
</g>
<g
   id="g31">
</g>
<g
   id="g33">
</g>
<g
   id="g35">
</g>
<g
   id="g37">
</g>
<g
   id="g39">
</g>
</svg>