<?xml version="1.0" encoding="UTF-8" standalone="no"?>
<!-- Generator: Adobe Illustrator 18.0.0, SVG Export Plug-In . SVG Version: 6.00 Build 0)  -->

<svg
   xmlns:dc="http://purl.org/dc/elements/1.1/"
   xmlns:cc="http://creativecommons.org/ns#"
   xmlns:rdf="http://www.w3.org/1999/02/22-rdf-syntax-ns#"
   xmlns:svg="http://www.w3.org/2000/svg"
   xmlns="http://www.w3.org/2000/svg"
   xmlns:sodipodi="http://sodipodi.sourceforge.net/DTD/sodipodi-0.dtd"
   xmlns:inkscape="http://www.inkscape.org/namespaces/inkscape"
   version="1.1"
   id="Capa_1"
   x="0px"
   y="0px"
   viewBox="0 0 112.196 112.196"
   style="enable-background:new 0 0 112.196 112.196;"
   xml:space="preserve"
   inkscape:version="0.48.4 r9939"
   width="100%"
   height="100%"
   sodipodi:docname="vk-2.svg"><metadata
   id="metadata44"><rdf:RDF><cc:Work
       rdf:about=""><dc:format>image/svg+xml</dc:format><dc:type
         rdf:resource="http://purl.org/dc/dcmitype/StillImage" /><dc:title></dc:title></cc:Work></rdf:RDF></metadata><defs
   id="defs42">
	
	

		
	
		
	</defs><sodipodi:namedview
   pagecolor="#ffffff"
   bordercolor="#666666"
   borderopacity="1"
   objecttolerance="10"
   gridtolerance="10"
   guidetolerance="10"
   inkscape:pageopacity="0"
   inkscape:pageshadow="2"
   inkscape:window-width="1600"
   inkscape:window-height="838"
   id="namedview40"
   showgrid="false"
   inkscape:zoom="2.1034618"
   inkscape:cx="-10.696653"
   inkscape:cy="56.098"
   inkscape:window-x="-8"
   inkscape:window-y="-8"
   inkscape:window-maximized="1"
   inkscape:current-layer="Capa_1" />
<path
   style="fill:#ffffff;fill-opacity:0.70588237"
   d="M 56.09375 0 C 25.11168 0 -8.6798002e-017 25.11168 0 56.09375 C 0 87.075819 25.11168 112.1875 56.09375 112.1875 C 87.075819 112.1875 112.1875 87.075819 112.1875 56.09375 C 112.1875 25.11168 87.075819 -6.8076864e-018 56.09375 0 z M 50.53125 38.875 C 51.430187 38.861297 52.387 38.86475 53.375 38.875 C 56.454 38.906 57.32725 39.084 58.53125 39.375 C 62.15925 40.251 60.9375 43.634 60.9375 51.75 C 60.9375 54.348 60.46875 58.00675 62.34375 59.21875 C 63.14975 59.73875 65.09925 59.3125 70.03125 50.9375 C 72.36925 46.9685 74.125 42.28125 74.125 42.28125 C 74.125 42.28125 74.53 41.45075 75.125 41.09375 C 75.734 40.72975 76.53125 40.84375 76.53125 40.84375 L 87.625 40.78125 C 87.625 40.78125 90.961 40.373 91.5 41.875 C 92.065 43.452 90.24375 47.1565 85.71875 53.1875 C 78.28875 63.0905 77.457 62.15 83.625 67.875 C 89.518 73.345 90.7375 76.01275 90.9375 76.34375 C 93.3775 80.38975 88.25 80.6875 88.25 80.6875 L 78.40625 80.84375 C 78.40625 80.84375 76.282 81.25475 73.5 79.34375 C 69.821 76.81875 66.35925 70.268 63.65625 71.125 C 60.91425 71.995 61 77.875 61 77.875 C 61 77.875 61.03125 79.1405 60.40625 79.8125 C 59.72725 80.5445 58.375 80.6875 58.375 80.6875 L 53.96875 80.6875 C 53.96875 80.6875 44.27375 81.282 35.71875 72.375 C 26.38875 62.66 18.125 43.375 18.125 43.375 C 18.125 43.375 17.6715 42.111 18.1875 41.5 C 18.7675 40.813 20.34375 40.78125 20.34375 40.78125 L 30.875 40.71875 C 30.875 40.71875 31.8525 40.88525 32.5625 41.40625 C 33.1475 41.83625 33.46875 42.625 33.46875 42.625 C 33.46875 42.625 35.1845 46.9205 37.4375 50.8125 C 41.8345 58.4105 43.882 60.09525 45.375 59.28125 C 47.55 58.09425 46.90625 48.53125 46.90625 48.53125 C 46.90625 48.53125 46.9475 45.07525 45.8125 43.53125 C 44.9335 42.33425 43.26325 41.973 42.53125 41.875 C 41.93925 41.796 42.89625 40.4295 44.15625 39.8125 C 45.57675 39.1165 47.834438 38.916109 50.53125 38.875 z "
   id="XMLID_11_" />
<g
   id="g10">
</g>
<g
   id="g12">
</g>
<g
   id="g14">
</g>
<g
   id="g16">
</g>
<g
   id="g18">
</g>
<g
   id="g20">
</g>
<g
   id="g22">
</g>
<g
   id="g24">
</g>
<g
   id="g26">
</g>
<g
   id="g28">
</g>
<g
   id="g30">
</g>
<g
   id="g32">
</g>
<g
   id="g34">
</g>
<g
   id="g36">
</g>
<g
   id="g38">
</g>
</svg>